<svg width="219" height="108" viewBox="0 0 219 108" fill="none" xmlns="http://www.w3.org/2000/svg">
<path d="M17.6532 12.86V19H15.8132V4.68H24.1732V6.44H17.6532V11.14H23.5332V12.86H17.6532ZM24.777 14.1C24.777 12.5933 25.2503 11.3467 26.197 10.36C27.157 9.37333 28.3636 8.88 29.817 8.88C31.2703 8.88 32.4703 9.37333 33.417 10.36C34.377 11.3467 34.857 12.5933 34.857 14.1C34.857 15.62 34.377 16.8667 33.417 17.84C32.4703 18.8267 31.2703 19.32 29.817 19.32C28.3636 19.32 27.157 18.8267 26.197 17.84C25.2503 16.8533 24.777 15.6067 24.777 14.1ZM26.617 14.1C26.617 15.1533 26.9236 16.0067 27.537 16.66C28.1503 17.3133 28.9103 17.64 29.817 17.64C30.7236 17.64 31.4836 17.3133 32.097 16.66C32.7103 16.0067 33.017 15.1533 33.017 14.1C33.017 13.06 32.7103 12.2133 32.097 11.56C31.4703 10.8933 30.7103 10.56 29.817 10.56C28.9236 10.56 28.1636 10.8933 27.537 11.56C26.9236 12.2133 26.617 13.06 26.617 14.1ZM38.2707 4.68V19H36.4307V4.68H38.2707ZM42.3527 4.68V19H40.5127V4.68H42.3527ZM43.9371 14.1C43.9371 12.5933 44.4104 11.3467 45.3571 10.36C46.3171 9.37333 47.5238 8.88 48.9771 8.88C50.4304 8.88 51.6304 9.37333 52.5771 10.36C53.5371 11.3467 54.0171 12.5933 54.0171 14.1C54.0171 15.62 53.5371 16.8667 52.5771 17.84C51.6304 18.8267 50.4304 19.32 48.9771 19.32C47.5238 19.32 46.3171 18.8267 45.3571 17.84C44.4104 16.8533 43.9371 15.6067 43.9371 14.1ZM45.7771 14.1C45.7771 15.1533 46.0838 16.0067 46.6971 16.66C47.3104 17.3133 48.0704 17.64 48.9771 17.64C49.8838 17.64 50.6438 17.3133 51.2571 16.66C51.8704 16.0067 52.1771 15.1533 52.1771 14.1C52.1771 13.06 51.8704 12.2133 51.2571 11.56C50.6304 10.8933 49.8704 10.56 48.9771 10.56C48.0838 10.56 47.3238 10.8933 46.6971 11.56C46.0838 12.2133 45.7771 13.06 45.7771 14.1ZM69.3732 9.2L66.2132 19H64.3332L61.8932 11.48L59.4732 19H57.6132L54.4532 9.2H56.3732L58.5532 16.6H58.5732L60.9932 9.2H62.8932L65.3132 16.6H65.3332L67.4932 9.2H69.3732ZM79.8752 19.32C78.2886 19.32 77.0086 18.8 76.0352 17.76C75.0619 16.7333 74.5752 15.3733 74.5752 13.68V4.68H76.4152V13.76C76.4152 14.9333 76.7219 15.86 77.3352 16.54C77.9486 17.22 78.7952 17.56 79.8752 17.56C80.9552 17.56 81.8019 17.22 82.4152 16.54C83.0286 15.86 83.3352 14.9333 83.3352 13.76V4.68H85.1752V13.68C85.1752 15.4133 84.6952 16.7867 83.7352 17.8C82.7752 18.8133 81.4886 19.32 79.8752 19.32ZM94.9073 16.28C94.9073 17.1333 94.5339 17.8533 93.7873 18.44C93.0406 19.0267 92.1006 19.32 90.9673 19.32C89.9806 19.32 89.1139 19.0667 88.3673 18.56C87.6206 18.04 87.0873 17.36 86.7673 16.52L88.4073 15.82C88.6473 16.4067 88.9939 16.8667 89.4473 17.2C89.9139 17.52 90.4206 17.68 90.9673 17.68C91.5539 17.68 92.0406 17.5533 92.4273 17.3C92.8273 17.0467 93.0273 16.7467 93.0273 16.4C93.0273 15.7733 92.5473 15.3133 91.5873 15.02L89.9073 14.6C88.0006 14.12 87.0473 13.2 87.0473 11.84C87.0473 10.9467 87.4073 10.2333 88.1273 9.7C88.8606 9.15333 89.7939 8.88 90.9273 8.88C91.7939 8.88 92.5739 9.08667 93.2673 9.5C93.9739 9.91333 94.4673 10.4667 94.7473 11.16L93.1073 11.84C92.9206 11.4267 92.6139 11.1067 92.1873 10.88C91.7739 10.64 91.3073 10.52 90.7873 10.52C90.3073 10.52 89.8739 10.64 89.4873 10.88C89.1139 11.12 88.9273 11.4133 88.9273 11.76C88.9273 12.32 89.4539 12.72 90.5073 12.96L91.9873 13.34C93.9339 13.82 94.9073 14.8 94.9073 16.28ZM99.0688 10.44C99.0688 10.8133 98.9355 11.1333 98.6688 11.4C98.4155 11.6667 98.0955 11.8 97.7088 11.8C97.3355 11.8 97.0155 11.6667 96.7488 11.4C96.4822 11.1333 96.3488 10.8133 96.3488 10.44C96.3488 10.0533 96.4822 9.73333 96.7488 9.48C97.0155 9.21333 97.3355 9.08 97.7088 9.08C98.0955 9.08 98.4155 9.21333 98.6688 9.48C98.9355 9.73333 99.0688 10.0533 99.0688 10.44ZM99.0688 17.76C99.0688 18.1333 98.9355 18.4533 98.6688 18.72C98.4155 18.9867 98.0955 19.12 97.7088 19.12C97.3355 19.12 97.0155 18.9867 96.7488 18.72C96.4822 18.4533 96.3488 18.1333 96.3488 17.76C96.3488 17.3733 96.4822 17.0533 96.7488 16.8C97.0155 16.5333 97.3355 16.4 97.7088 16.4C98.0955 16.4 98.4155 16.5333 98.6688 16.8C98.9355 17.0533 99.0688 17.3733 99.0688 17.76Z" fill="black"/>
<ellipse cx="32.4652" cy="74.0636" rx="32.4652" ry="32.46" fill="#F1F1F1"/>
<ellipse cx="109.432" cy="74.0636" rx="32.4652" ry="32.46" fill="#F1F1F1"/>
<path fill-rule="evenodd" clip-rule="evenodd" d="M106.673 70.7306H111.352V73.0609C112.026 71.7207 113.755 70.5165 116.351 70.5165C121.329 70.5165 122.51 73.1844 122.51 78.0794V87.145H117.471V79.1942C117.471 76.4066 116.797 74.8345 115.081 74.8345C112.701 74.8345 111.712 76.5287 111.712 79.1929V87.145H106.673V70.7306ZM98.0317 86.9309H103.071V70.5165H98.0317V86.9309ZM103.793 65.1642C103.793 65.5866 103.709 66.0047 103.547 66.3944C103.384 66.7841 103.145 67.1375 102.844 67.4341C102.235 68.0395 101.41 68.3784 100.551 68.3763C99.6939 68.3758 98.8712 68.0377 98.261 67.4354C97.9614 67.1377 97.7235 66.7839 97.561 66.3942C97.3984 66.0045 97.3143 65.5865 97.3136 65.1642C97.3136 64.3115 97.6538 63.4952 98.2623 62.8931C98.8719 62.2899 99.695 61.9518 100.553 61.9521C101.412 61.9521 102.236 62.291 102.844 62.8931C103.452 63.4952 103.793 64.3115 103.793 65.1642Z" fill="black"/>
<ellipse cx="186.399" cy="75.1036" rx="32.4652" ry="32.46" fill="#F1F1F1"/>
<path d="M200.072 66.5387C199.088 66.9746 198.031 67.2691 196.92 67.4022C198.067 66.7164 198.924 65.6369 199.333 64.3653C198.256 65.005 197.077 65.4552 195.848 65.6965C195.021 64.814 193.927 64.2291 192.733 64.0325C191.54 63.8359 190.315 64.0388 189.249 64.6095C188.183 65.1802 187.335 66.0868 186.838 67.1886C186.34 68.2905 186.219 69.5258 186.496 70.7029C184.313 70.5934 182.178 70.0262 180.229 69.0383C178.28 68.0504 176.561 66.6638 175.183 64.9685C174.712 65.7813 174.441 66.7237 174.441 67.7273C174.44 68.6308 174.663 69.5205 175.088 70.3174C175.514 71.1143 176.13 71.7938 176.882 72.2956C176.01 72.2679 175.158 72.0324 174.396 71.6088V71.6795C174.396 72.9467 174.834 74.175 175.637 75.1558C176.439 76.1366 177.556 76.8096 178.799 77.0606C177.99 77.2794 177.142 77.3116 176.32 77.1549C176.67 78.2452 177.353 79.1987 178.272 79.8818C179.192 80.565 180.302 80.9435 181.447 80.9645C179.503 82.4905 177.102 83.3182 174.63 83.3146C174.192 83.3147 173.755 83.2892 173.32 83.238C175.829 84.8509 178.75 85.7069 181.732 85.7036C191.829 85.7036 197.349 77.3422 197.349 70.0904C197.349 69.8548 197.343 69.6168 197.333 69.3812C198.406 68.6049 199.333 67.6436 200.07 66.5423L200.072 66.5387Z" fill="black"/>
<path fill-rule="evenodd" clip-rule="evenodd" d="M27.0039 61.0592C28.3859 60.9956 28.8266 60.9814 32.347 60.9814C35.8674 60.9814 36.308 60.9968 37.6889 61.0592C39.0697 61.1216 40.0123 61.3419 40.837 61.6612C41.7006 61.9875 42.4841 62.4975 43.1321 63.1572C43.7919 63.8039 44.3009 64.5861 44.626 65.4508C44.9465 66.2754 45.1656 67.2178 45.2293 68.596C45.2929 69.9802 45.307 70.4208 45.307 73.9394C45.307 77.4593 45.2917 77.8999 45.2293 79.2817C45.1668 80.6599 44.9465 81.6023 44.626 82.4269C44.3008 83.2917 43.791 84.0752 43.1321 84.7228C42.4841 85.3825 41.7006 85.8914 40.837 86.2165C40.0123 86.537 39.0697 86.7561 37.6912 86.8197C36.308 86.8833 35.8674 86.8974 32.347 86.8974C28.8266 86.8974 28.3859 86.8821 27.0039 86.8197C25.6254 86.7572 24.6829 86.537 23.8582 86.2165C22.9933 85.8914 22.2097 85.3816 21.5619 84.7228C20.9026 84.0757 20.3923 83.2926 20.0668 82.4281C19.7475 81.6035 19.5283 80.6611 19.4647 79.2828C19.4011 77.8987 19.387 77.4581 19.387 73.9394C19.387 70.4196 19.4023 69.979 19.4647 68.5984C19.5272 67.2178 19.7475 66.2754 20.0668 65.4508C20.3928 64.5862 20.9034 63.8031 21.5631 63.156C22.2099 62.4969 22.9928 61.9868 23.857 61.6612C24.6817 61.3419 25.6243 61.1228 27.0027 61.0592H27.0039ZM37.584 63.3916C36.2173 63.3292 35.8073 63.3162 32.347 63.3162C28.8867 63.3162 28.4767 63.3292 27.11 63.3916C25.8458 63.4494 25.1601 63.6602 24.7029 63.8381C24.0985 64.0737 23.6661 64.3529 23.2125 64.8064C22.7825 65.2247 22.4516 65.7338 22.2441 66.2966C22.0662 66.7536 21.8553 67.4392 21.7975 68.7032C21.7351 70.0697 21.7221 70.4797 21.7221 73.9394C21.7221 77.3992 21.7351 77.8092 21.7975 79.1756C21.8553 80.4396 22.0662 81.1252 22.2441 81.5823C22.4514 82.1442 22.7825 82.6543 23.2125 83.0725C23.6308 83.5024 24.1409 83.8334 24.7029 84.0408C25.1601 84.2187 25.8458 84.4295 27.11 84.4872C28.4767 84.5497 28.8855 84.5626 32.347 84.5626C35.8085 84.5626 36.2173 84.5497 37.584 84.4872C38.8482 84.4295 39.5339 84.2187 39.9911 84.0408C40.5955 83.8052 41.0279 83.526 41.4815 83.0725C41.9115 82.6543 42.2426 82.1442 42.4499 81.5823C42.6278 81.1252 42.8387 80.4396 42.8965 79.1756C42.9589 77.8092 42.9719 77.3992 42.9719 73.9394C42.9719 70.4797 42.9589 70.0697 42.8965 68.7032C42.8387 67.4392 42.6278 66.7536 42.4499 66.2966C42.2143 65.6923 41.9351 65.2599 41.4815 64.8064C41.0631 64.3765 40.5539 64.0457 39.9911 63.8381C39.5339 63.6602 38.8482 63.4494 37.584 63.3916ZM30.6916 77.934C31.6161 78.3188 32.6455 78.3707 33.604 78.0809C34.5625 77.7912 35.3907 77.1777 35.9471 76.3452C36.5034 75.5127 36.7535 74.513 36.6545 73.5167C36.5555 72.5203 36.1137 71.5893 35.4044 70.8825C34.9522 70.4307 34.4055 70.0848 33.8036 69.8696C33.2017 69.6544 32.5596 69.5754 31.9234 69.6381C31.2873 69.7008 30.673 69.9038 30.1247 70.2324C29.5764 70.561 29.1079 71.0071 28.7527 71.5385C28.3976 72.0699 28.1647 72.6734 28.0708 73.3056C27.9769 73.9378 28.0244 74.583 28.2098 75.1946C28.3953 75.8063 28.714 76.3692 29.1432 76.8429C29.5723 77.3166 30.1012 77.6892 30.6916 77.934ZM27.6366 69.2298C28.2552 68.6113 28.9895 68.1207 29.7978 67.786C30.606 67.4513 31.4722 67.279 32.347 67.279C33.2218 67.279 34.088 67.4513 34.8962 67.786C35.7044 68.1207 36.4388 68.6113 37.0574 69.2298C37.6759 69.8483 38.1666 70.5825 38.5014 71.3906C38.8362 72.1987 39.0085 73.0648 39.0085 73.9394C39.0085 74.8141 38.8362 75.6802 38.5014 76.4883C38.1666 77.2964 37.6759 78.0306 37.0574 78.6491C35.8081 79.8981 34.1137 80.5999 32.347 80.5999C30.5803 80.5999 28.8859 79.8981 27.6366 78.6491C26.3873 77.4 25.6855 75.7059 25.6855 73.9394C25.6855 72.173 26.3873 70.4789 27.6366 69.2298ZM40.4859 68.2709C40.6392 68.1263 40.7619 67.9525 40.8468 67.7596C40.9317 67.5668 40.977 67.3589 40.98 67.1482C40.9831 66.9375 40.9439 66.7284 40.8647 66.5331C40.7854 66.3379 40.6678 66.1605 40.5188 66.0115C40.3698 65.8626 40.1924 65.745 39.9972 65.6658C39.8019 65.5866 39.5927 65.5473 39.382 65.5504C39.1713 65.5535 38.9634 65.5988 38.7705 65.6837C38.5776 65.7685 38.4037 65.8912 38.2591 66.0445C37.9779 66.3426 37.8239 66.7385 37.8299 67.1482C37.8359 67.5579 38.0013 67.9492 38.2911 68.2389C38.5809 68.5287 38.9722 68.6941 39.382 68.7C39.7918 68.706 40.1878 68.5521 40.4859 68.2709Z" fill="black"/>
</svg>
